<?xml version="1.0" encoding="utf-8"?>
<!-- Generator: Adobe Illustrator 16.0.3, SVG Export Plug-In . SVG Version: 6.00 Build 0)  -->
<!DOCTYPE svg PUBLIC "-//W3C//DTD SVG 1.1//EN" "http://www.w3.org/Graphics/SVG/1.1/DTD/svg11.dtd">
<svg version="1.1" id="Layer_1" xmlns="http://www.w3.org/2000/svg" xmlns:xlink="http://www.w3.org/1999/xlink" x="0px" y="0px"
	 width="78px" height="78px" viewBox="-62 -31 78 78" enable-background="new -62 -31 78 78" xml:space="preserve">
<g>
	<g id="Layer_1_1_">
		<circle fill="#0098FF" cx="-22.75" cy="14.274" r="32.476"/>
		<g id="_x34_r0muM_1_" display="none">
			
				<image display="inline" overflow="visible" enable-background="new    " width="273" height="300" id="_x34_r0muM" xlink:href="30EA2C36C41888E0.jpeg"  transform="matrix(0.1371 0 0 0.1571 -41.4639 -31.25)">
			</image>
		</g>
		<path fill="#F2F2F2" d="M-38.988,5.924"/>
		<g>
			<path fill="#F2F2F2" d="M0.909,9.635c-2.32-2.782-10.67-6.03-10.67-6.03s-0.462-1.857-2.319-4.177
				c-0.462-0.462-1.853-0.924-1.853-0.924s-0.467-1.857,0-4.177c2.782-0.462,2.782-6.497,1.391-7.421c0-1.396,0-2.32,0-3.249
				c0-4.177-0.467-4.639-0.929-6.03c-0.462-1.396-5.102-5.106-9.279-5.106c-2.784,0-10.67,1.391-10.208,11.136
				c0,0.929,0,1.391,0,2.32c0.464,1.853-0.462,5.102,0.464,8.35c0,0.462,0,5.568,2.32,7.421c1.393,1.857,2.319,1.857,2.784,2.319
				c0,0,0.465,4.177-1.391,4.64c-0.929,0-2.784,0.467-5.568,2.319c-3.249,1.857-12.989,16.238-15.773,20.878
				c6.03,8.816,15.773,14.847,27.372,14.847c8.817,0,17.167-3.711,23.197-9.741C2.305,13.812,2.767,11.954,0.909,9.635z"/>
		</g>
	</g>
	<g id="options" display="none">
	</g>
</g>
</svg>
