<svg id="Layer_1" data-name="Layer 1" xmlns="http://www.w3.org/2000/svg" viewBox="0 0 24 24">
  <defs>
    <style>.cls-1{fill:none;}.cls-2{clip-path:url(#clip-path);}.cls-3{fill:#535a63;}</style>
    <clipPath id="clip-path">
      <path class="cls-1"
            d="M4.81,1.58a.73.73,0,0,0-.44,0C2.81,2.21,1.82,4.45,1.59,6c-.73,5,3.22,9.32,6.85,12.17,3.22,2.53,9.41,6.68,13.07,2.67a3,3,0,0,0,1-1.95c-.09-1.22-1.22-2.09-2.09-2.76-.67-.49-2.06-1.86-2.93-1.83s-1.28.84-1.77,1.34l-.87.87c-.15.15-2-1.07-2.21-1.22a14.82,14.82,0,0,1-2.12-1.66,13.69,13.69,0,0,1-1.71-2A10.1,10.1,0,0,1,7.57,9.53s1-1.1,1.31-1.54c.61-.93,1.07-1.66.38-2.76a6.5,6.5,0,0,0-.93-1.07A17.67,17.67,0,0,0,6.41,2.48,4.1,4.1,0,0,0,4.81,1.58Z"/>
    </clipPath>
  </defs>
  <title>Account</title>
  <g class="cls-2">
    <rect class="cls-3" x="-6.07" y="-6.02" width="36.14" height="36.09"/>
  </g>
</svg>
