<?xml version="1.0" encoding="UTF-8"?>
<svg width="24px" height="21px" viewBox="0 0 24 21" version="1.1" xmlns="http://www.w3.org/2000/svg" xmlns:xlink="http://www.w3.org/1999/xlink">
    <!-- Generator: Sketch 46.2 (44496) - http://www.bohemiancoding.com/sketch -->
    <title>Icon / Cart</title>
    <desc>Created with Sketch.</desc>
    <defs></defs>
    <g id="Symbols" stroke="none" stroke-width="1" fill="none" fill-rule="evenodd">
        <g id="Icons-/-Cart" fill-rule="nonzero" fill="#002B56">
            <g id="Icon-/-Cart">
                <path d="M0.000909967389,0.954893318 C-0.0217951567,1.50498298 0.383173431,1.97039441 0.904543626,1.9943058 L3.84461507,2.12980372 L4.54774735,4.83344947 C4.55243974,4.89488582 4.56227863,4.9562584 4.57793003,5.01677018 L7.0013236,14.2685344 C7.01555215,14.3230843 7.03401898,14.3754662 7.05620946,14.425457 C7.07425246,14.4629819 7.08221439,14.4803575 7.0912359,14.4969999 C7.1001363,14.5135147 7.11000547,14.5292324 7.11975353,14.5450777 C7.14276139,14.5822201 7.15426532,14.5978422 7.16576925,14.6134643 C7.19010914,14.6463026 7.20318729,14.6616059 7.21641681,14.6767498 C7.24066589,14.704487 7.25419814,14.717718 7.26766985,14.7309808 C7.29473435,14.7574747 7.30729786,14.7678044 7.31970999,14.7783254 C7.3528292,14.806222 7.36454504,14.8142563 7.37604897,14.8226093 C7.41594944,14.8509842 7.42793775,14.8578707 7.43974441,14.8651078 C7.48176403,14.8901351 7.49444863,14.8960651 7.50692131,14.902314 C7.54990968,14.9234198 7.56192826,14.9277876 7.57376519,14.9326017 C7.62305045,14.9518903 7.63685516,14.9556842 7.65056906,14.9598607 C7.75698041,14.9895427 7.83414756,15 7.91261646,15 C7.91322193,15 12.1526421,15 20.6308769,15 C21.0567039,15 21.4294615,14.7010119 21.5420789,14.2685344 L23.9654725,5.01677018 C24.0449404,4.71682561 23.9853016,4.39596655 23.8064761,4.14885023 C23.626712,3.90071369 23.3504361,3.75517299 23.0542705,3.75517299 L6.23022732,3.75517299 L5.48789085,0.901076733 C5.3790879,0.483519978 5.02618972,0.188612736 4.61546917,0.16967491 L0.98755356,0.00318782253 C0.95276931,0.000318454887 0.918499709,-0.000542355405 0.884926399,0.000318454887 C0.381841397,0.0139638921 0.0212840321,0.441053337 0.000909967389,0.954893318 Z M6.74905454,5.76294945 L21.8111801,5.76294945 L19.9111245,13.040231 L8.63709156,13.040231 L6.74905454,5.76294945 Z M10.0709205,16 C8.69095737,16 7.57094976,17.1209093 7.57094976,18.5 C7.57094976,19.8790907 8.69095737,21 10.0709205,21 C11.4482664,21 12.5709498,19.8790907 12.5709498,18.5 C12.5709498,17.1209093 11.4491389,16 10.0709205,16 Z M17.9570754,16 C16.5770831,16 15.4570754,17.1209093 15.4570754,18.5 C15.4570754,19.8790907 16.5770831,21 17.9570754,21 C19.3343338,21 20.4570754,19.8790907 20.4570754,18.5 C20.4570754,17.1209093 19.3352645,16 17.9570754,16 Z" id="Shape"></path>
            </g>
        </g>
    </g>
</svg>