<?xml version="1.0" encoding="UTF-8" standalone="no"?>
<svg width="28px" height="28px" viewBox="0 0 28 28" version="1.1" xmlns="http://www.w3.org/2000/svg" xmlns:xlink="http://www.w3.org/1999/xlink">
    <!-- Generator: Sketch 45.2 (43514) - http://www.bohemiancoding.com/sketch -->
    <title>Combined Shape</title>
    <desc>Created with Sketch.</desc>
    <defs></defs>
    <g id="Page-1" stroke="none" stroke-width="1" fill="none" fill-rule="evenodd">
        <g id="Desktop-HD" transform="translate(-1102.000000, -4627.000000)" fill="#FFFFFF">
            <g id="Footer" transform="translate(0.000000, 4528.000000)">
                <g id="Social" transform="translate(1102.000000, 99.000000)">
                    <g id="Facebook-Copy">
                        <g id="Group-3" transform="translate(0.000000, 0.077430)">
                            <path d="M19.2908062,27.7539401 L26.4257054,27.7539401 C27.2780775,27.7539401 27.9692868,27.0681657 27.9692868,26.2220399 L27.9692868,1.53179255 C27.9692868,0.685666701 27.2780775,0 26.4257054,0 L1.54368992,0 C0.690992248,0 0,0.685666701 0,1.53179255 L0,26.2220399 C0,27.0679503 0.690883721,27.7539401 1.54368992,27.7539401 L14.9317054,27.7539401 L14.9317054,17.0444228 L11.2868217,17.0444228 L11.2868217,12.855793 L14.9317054,12.855793 L14.9317054,9.76679286 C14.9317054,6.18220015 17.138062,4.23019848 20.3606667,4.23019848 C21.9044651,4.23019848 23.2313178,4.34413524 23.6178915,4.39518063 L23.6178915,8.14152478 L21.3825581,8.142494 C19.6301705,8.142494 19.2908062,8.96891245 19.2908062,10.1816174 L19.2908062,12.855793 L23.4707287,12.855793 L22.9263566,17.0444228 L19.2908062,17.0444228 L19.2908062,27.7539401 Z" id="Combined-Shape"></path>
                        </g>
                    </g>
                </g>
            </g>
        </g>
    </g>
</svg>