<?xml version="1.0" encoding="UTF-8" standalone="no"?>
<svg width="28px" height="28px" viewBox="0 0 28 28" version="1.1" xmlns="http://www.w3.org/2000/svg" xmlns:xlink="http://www.w3.org/1999/xlink">
    <!-- Generator: Sketch 45.2 (43514) - http://www.bohemiancoding.com/sketch -->
    <title>Combined Shape</title>
    <desc>Created with Sketch.</desc>
    <defs></defs>
    <g id="Page-1" stroke="none" stroke-width="1" fill="none" fill-rule="evenodd">
        <g id="Desktop-HD" transform="translate(-1211.000000, -4627.000000)" fill="#FFFFFF">
            <g id="Footer" transform="translate(0.000000, 4528.000000)">
                <g id="Social" transform="translate(1102.000000, 99.000000)">
                    <g id="Instagram" transform="translate(109.000000, 0.000000)">
                        <g id="Group-3" transform="translate(0.000000, 0.046630)">
                            <path d="M13.9957222,0.00882138614 C10.1947222,0.00882138614 9.71794444,0.0249005941 8.22538889,0.0928768317 C6.73566667,0.160742178 5.71833333,0.396829307 4.82811111,0.742144158 C3.89427778,1.09289267 3.04827778,1.64269069 2.34922222,2.35322535 C1.63711111,3.05084119 1.08605556,3.89516594 0.7345,4.82720554 C0.388777778,5.7157204 0.152222222,6.73103921 0.0845,8.21781149 C0.0161111111,9.70741149 0,10.1832451 0,13.9767184 C0,17.7701917 0.0161111111,18.2460253 0.0845,19.7356253 C0.1525,21.2223976 0.389055556,22.2377164 0.735055556,23.1261204 C1.0865,24.05816 1.63738889,24.9024848 2.34933333,25.600156 C3.04838889,26.3106907 3.89438889,26.8604887 4.82822222,27.2112372 C5.7185,27.5565521 6.73583333,27.7926392 8.2255,27.8605046 C9.71827778,27.9284808 10.1948889,27.94456 13.9958333,27.94456 C17.7967778,27.94456 18.2736111,27.9284808 19.7661667,27.8605046 C21.2558889,27.7926392 22.2732222,27.5565521 23.1635,27.2112372 C25.0433333,26.4855659 26.5295,25.0023422 27.2566111,23.1261204 C27.6026111,22.237661 27.8391667,21.2223422 27.9071667,19.7356253 C27.9752778,18.2458036 27.9913889,17.7701362 27.9913889,13.9767184 C27.9913889,10.1833006 27.9752778,9.70741149 27.9071667,8.21781149 C27.8391667,6.73103921 27.6026111,5.7157204 27.2566111,4.82726099 C26.9051667,3.89522139 26.3542778,3.05095208 25.6423333,2.35328079 C24.9432778,1.6425798 24.0972222,1.09267089 23.1632778,0.741866931 C22.273,0.396829307 21.2556667,0.160742178 19.7659444,0.0931540594 C18.2733889,0.0249005941 17.7966111,0.00882138614 13.9956111,0.00882138614 L13.9957222,0.00882138614 Z M13.9956111,2.52560554 C17.7326111,2.52560554 18.1752222,2.53985505 19.6511667,2.60705505 C21.0157222,2.6692095 21.7567222,2.89670257 22.2499444,3.0879897 C22.8578889,3.31187881 23.4077222,3.66894812 23.8591667,4.13286099 C24.324,4.58341149 24.6817778,5.13221149 24.9061111,5.73889663 C25.0977778,6.23108673 25.3257778,6.97067485 25.3880556,8.33252832 C25.4553333,9.80543921 25.4696111,10.2471739 25.4696111,13.9768848 C25.4696111,17.7065956 25.4553333,18.1482194 25.3880556,19.6212412 C25.3257222,20.9830947 25.0977222,21.7226273 24.9061111,22.2148729 C24.4352778,23.4330669 23.4705556,24.3958788 22.2499444,24.8657244 C21.7567778,25.0570669 21.0157222,25.2846154 19.6511667,25.3467145 C18.1756111,25.4139145 17.733,25.428164 13.9956111,25.428164 C10.2582222,25.428164 9.81577778,25.4139145 8.34005556,25.3467145 C6.9755,25.28456 6.2345,25.0570115 5.74127778,24.8657244 C5.13338889,24.6418352 4.5835,24.2848214 4.13205556,23.8209085 C3.66722222,23.370358 3.30944444,22.821558 3.08511111,22.2148729 C2.89344444,21.7226828 2.66544444,20.9830947 2.60322222,19.6212412 C2.53588889,18.1483857 2.52161111,17.7065402 2.52161111,13.9768848 C2.52161111,10.2471739 2.53588889,9.8055501 2.60322222,8.33252832 C2.6655,6.97067485 2.89344444,6.23114218 3.08511111,5.73889663 C3.3095,5.13215604 3.66727778,4.58335604 4.13216667,4.13280554 C4.58361111,3.66889267 5.1335,3.31182337 5.74138889,3.08793426 C6.23455556,2.89664713 6.97561111,2.66909861 8.34016667,2.6069996 C9.816,2.5397996 10.2586111,2.5255501 13.9957222,2.5255501 L13.9956111,2.52560554 Z M13.9956111,18.632625 C11.4191111,18.632625 9.33044444,16.5480388 9.3305,13.9766408 C9.3305,11.4052428 11.4192222,9.32076752 13.9957222,9.32076752 C16.5722222,9.32082297 18.6608333,11.4053537 18.6608333,13.9766962 C18.6608333,16.5480943 16.5721111,18.632625 13.9956111,18.632625 Z M13.9956111,6.80398337 C10.0263889,6.80398337 6.80866667,10.0153339 6.80866667,13.9766962 C6.80866667,17.9381141 10.0263889,21.1494646 13.9956111,21.1494646 C17.9648333,21.1494646 21.1825556,17.9381141 21.1825556,13.9766962 C21.1825556,10.0153339 17.9648333,6.80398337 13.9956111,6.80398337 Z M21.4664778,4.84449901 C20.5389778,4.84449901 19.7870889,5.59495446 19.7870889,6.52061782 C19.7870889,7.44633663 20.5389778,8.19673663 21.4664778,8.19673663 C22.3940333,8.19673663 23.1459222,7.44633663 23.1459222,6.52061782 C23.1459222,5.59495446 22.3940333,4.84449901 21.4664778,4.84449901 Z" id="Combined-Shape"></path>
                        </g>
                    </g>
                </g>
            </g>
        </g>
    </g>
</svg>