<svg xmlns="http://www.w3.org/2000/svg" xmlns:xlink="http://www.w3.org/1999/xlink" width="16" height="21" viewBox="0 0 16 21"><defs><path id="ifika" d="M232 260a2 2 0 0 1-2-2c0-1.1.9-2 2-2a2 2 0 0 1 2 2 2 2 0 0 1-2 2zm6-9a2 2 0 0 1 2 2v10a2 2 0 0 1-2 2h-12a2 2 0 0 1-2-2v-10c0-1.1.9-2 2-2h1v-2a5 5 0 0 1 10 0v2zm-9.1-2v2h6.2v-2a3.1 3.1 0 0 0-6.2 0zm9.1 14v-10h-12v10z"/></defs><g><g clip-path="url(#clip-1B0BE963-7084-43B8-9199-AF0BA43FC5BF)" transform="translate(-224 -244)"><use fill="#e9eaea" xlink:href="#ifika"/></g></g></svg>