<svg version="1.1" id="Layer_1" xmlns="http://www.w3.org/2000/svg" xmlns:xlink="http://www.w3.org/1999/xlink" x="0px" y="0px"
	 viewBox="0 0 1211.72 138.42" style="enable-background:new 0 0 1211.72 138.42;" xml:space="preserve">
<style type="text/css">
	.st0{fill:#ED1C24;}
	.st1{fill:#002B57;}
	.st2{fill:#A7A9AC;}
</style>
<polygon class="st0" points="12.05,70.68 4.47,85.84 40.45,85.84 38.56,70.68 "/>
<polygon class="st0" points="46.14,70.68 48.03,85.84 78.34,85.84 76.45,70.68 "/>
<polygon class="st0" points="84.03,70.68 85.91,85.84 116.22,85.84 114.34,70.68 "/>
<polygon class="st0" points="121.91,70.68 123.8,85.84 148.43,85.84 156.01,70.68 "/>
<polygon class="st0" points="53.72,47.95 46.14,63.11 15.83,63.11 23.41,47.95 "/>
<polygon class="st0" points="91.61,47.95 84.03,63.11 53.72,63.11 61.3,47.95 "/>
<polygon class="st0" points="129.49,47.95 121.91,63.11 91.6,63.11 99.18,47.95 "/>
<polygon class="st0" points="167.38,47.95 159.8,63.11 129.49,63.11 137.07,47.95 "/>
<polygon class="st1" points="61.3,25.22 63.18,40.38 27.2,40.38 34.78,25.22 "/>
<polygon class="st1" points="101.07,40.38 70.76,40.38 68.88,25.22 99.18,25.22 "/>
<polygon class="st0" points="138.95,40.38 108.65,40.38 106.76,25.22 137.07,25.22 "/>
<polygon class="st0" points="178.74,25.22 171.17,40.38 146.53,40.38 144.65,25.22 "/>
<polygon class="st1" points="46.14,2.49 38.56,17.65 68.87,17.65 76.45,2.49 "/>
<polygon class="st1" points="84.03,2.49 76.45,17.65 106.76,17.65 114.34,2.49 "/>
<polygon class="st0" points="121.91,2.49 114.34,17.65 144.64,17.65 152.22,2.49 "/>
<polygon class="st0" points="159.8,2.49 152.22,17.65 182.53,17.65 190.11,2.49 "/>
<path class="st1" d="M261.35,84.53c-8.06,2.56-12.67,3.07-18.81,3.07c-14.97,0-24.96-11.01-24.96-27.77V41.39h-12.16V23.61h12.16
	V2.49h20.74v21.12h21.12v17.79h-21.12v17.79c0,6.27,3.58,9.34,9.72,9.34c2.94,0,6.4-0.64,11.01-1.54L261.35,84.53z"/>
<path class="st1" d="M344.41,42.29c-10.11,0.38-16.51,3.07-21.38,7.93v35.45h-20.73V23.61h20.73v6.66
	c5.51-4.74,12.16-7.68,21.38-7.68V42.29z"/>
<path class="st1" d="M367.45,48.56h25.34c-1.15-6.78-5.63-10.37-12.29-10.37C373.46,38.2,368.98,42.29,367.45,48.56 M411.86,60.34
	l0.13,0.38H367.7c1.67,5.63,6.02,9.98,13.95,9.98c4.35,0,7.68-1.66,9.47-4.48h20.48c-2.94,12.8-14.85,20.86-30.21,20.86
	c-20.35,0-33.91-13.57-33.91-32.51c0-18.82,13.18-32.38,33.02-32.38c18.05,0,31.74,12.41,31.74,31.1
	C412.24,55.6,412.24,58.03,411.86,60.34"/>
<rect x="269.66" y="23.61" class="st1" width="20.73" height="62.07"/>
<path class="st2" d="M466.13,64.18v-19.2c-3.84-4.48-8.32-5.89-12.92-5.89c-8.45,0-14.59,6.91-14.59,15.49
	c0,8.57,6.14,15.36,14.59,15.36C457.81,69.94,462.29,68.66,466.13,64.18 M486.86,85.68h-20.74v-3.46
	c-4.6,2.94-10.24,4.74-17.02,4.74c-16.77,0-30.85-13.95-30.85-32.38c0-18.56,14.08-32.38,30.85-32.38c6.78,0,12.41,1.79,17.02,4.74
	v-3.33h20.74V85.68z"/>
<path class="st2" d="M601.54,50.23v35.45h-20.86V53.56c0-8.83-4.22-13.06-11.14-13.06c-3.2,0-6.4,1.41-9.47,5.12
	c0.13,1.54,0.25,3.07,0.25,4.61v35.45h-20.73V53.56c0-8.83-4.35-13.06-11.14-13.06c-3.2,0-6.27,1.54-9.34,5.5v39.68h-20.73V23.61
	h20.73v3.71c4.23-3.58,8.58-5.63,15.49-5.63c7.81,0,14.46,2.94,19.07,8.32c6.53-5.76,12.8-8.32,22.01-8.32
	C590.53,21.69,601.54,32.57,601.54,50.23"/>
<path class="st2" d="M629.06,48.56h25.34c-1.15-6.78-5.63-10.37-12.29-10.37C635.07,38.2,630.59,42.29,629.06,48.56 M673.47,60.34
	l0.13,0.38h-44.28c1.66,5.63,6.01,9.98,13.95,9.98c4.35,0,7.68-1.66,9.47-4.48h20.48c-2.94,12.8-14.85,20.86-30.21,20.86
	c-20.35,0-33.91-13.57-33.91-32.51c0-18.82,13.18-32.38,33.02-32.38c18.05,0,31.74,12.41,31.74,31.1
	C673.85,55.6,673.85,58.03,673.47,60.34"/>
<path class="st2" d="M723.64,42.29c-10.11,0.38-16.51,3.07-21.37,7.93v35.45h-20.73V23.61h20.73v6.66
	c5.5-4.74,12.16-7.68,21.37-7.68V42.29z"/>
<path class="st2" d="M807.47,60.21h19.58c-1.41,16-14.59,26.88-31.74,26.88c-19.58,0-33.91-13.57-33.91-32.51
	c0-18.81,14.33-32.38,33.91-32.38c17.15,0,30.33,10.88,31.74,26.88h-19.58c-1.02-5.63-5.76-9.35-12.16-9.35
	c-8.83,0-14.21,6.4-14.21,14.85c0,8.45,5.37,14.97,14.21,14.97C801.71,69.55,806.45,65.84,807.47,60.21"/>
<path class="st2" d="M880.94,64.18v-19.2c-3.84-4.48-8.32-5.89-12.92-5.89c-8.45,0-14.59,6.91-14.59,15.49
	c0,8.57,6.14,15.36,14.59,15.36C872.62,69.94,877.1,68.66,880.94,64.18 M901.67,85.68h-20.74v-3.46c-4.6,2.94-10.24,4.74-17.02,4.74
	c-16.77,0-30.85-13.95-30.85-32.38c0-18.56,14.08-32.38,30.85-32.38c6.78,0,12.41,1.79,17.02,4.74v-3.33h20.74V85.68z"/>
<rect x="731.96" y="23.61" class="st2" width="20.73" height="62.07"/>
<g>
	<path class="st1" d="M912.53,77.23c0-6.3,5.27-11.19,11.71-11.19c6.43,0,11.71,4.89,11.71,11.19c0,6.43-5.28,11.32-11.71,11.32
		C917.8,88.55,912.53,83.66,912.53,77.23z"/>
	<path class="st1" d="M988.17,60.63h19.68c-1.42,16.08-14.67,27.02-31.91,27.02c-19.68,0-34.09-13.64-34.09-32.68
		c0-18.91,14.41-32.55,34.09-32.55c17.24,0,30.49,10.94,31.91,27.02h-19.68c-1.03-5.66-5.79-9.39-12.22-9.39
		c-8.88,0-14.28,6.43-14.28,14.92s5.4,15.05,14.28,15.05C982.38,70.02,987.14,66.29,988.17,60.63z"/>
	<path class="st1" d="M1084.14,54.97c0,19.04-14.15,33.19-33.84,33.19s-33.84-14.15-33.84-33.19c0-18.78,14.15-32.55,33.84-32.55
		S1084.14,36.19,1084.14,54.97z M1064.46,55.1c0-8.11-5.66-14.67-14.02-14.67c-8.49,0-14.15,6.56-14.15,14.67
		c0,8.36,5.66,15.05,14.15,15.05C1058.8,70.15,1064.46,63.46,1064.46,55.1z"/>
	<path class="st1" d="M1198.13,50.6v35.64h-20.97V53.94c0-8.88-4.25-13.12-11.19-13.12c-3.22,0-6.43,1.42-9.52,5.15
		c0.13,1.54,0.26,3.09,0.26,4.63v35.64h-20.84V53.94c0-8.88-4.37-13.12-11.19-13.12c-3.22,0-6.3,1.54-9.39,5.53v39.88h-20.84v-62.4
		h20.84v3.73c4.25-3.6,8.62-5.66,15.57-5.66c7.85,0,14.54,2.96,19.17,8.36c6.56-5.79,12.87-8.36,22.13-8.36
		C1187.07,21.9,1198.13,32.84,1198.13,50.6z"/>
</g>
<g>
	<path d="M222.61,125.99v7.08h-5.87v-7.08l-9.29-16.4h6.46l5.73,10.22l5.76-10.22h6.46L222.61,125.99z"/>
	<path d="M258.92,121.33c0,6.83-5.35,12.22-12.46,12.22c-7.08,0-12.43-5.39-12.43-12.22c0-6.83,5.35-12.22,12.43-12.22
		C253.57,109.11,258.92,114.5,258.92,121.33z M252.98,121.33c0-3.69-2.73-6.8-6.52-6.8c-3.8,0-6.52,3.11-6.52,6.8s2.73,6.8,6.52,6.8
		C250.25,128.13,252.98,125.02,252.98,121.33z"/>
	<path d="M286.5,122.13c0,7.28-4.21,11.46-10.94,11.46c-6.7,0-10.91-4.18-10.91-11.46v-12.53h5.87v12.63c0,3.59,1.97,5.9,5.04,5.9
		c3.07,0,5.08-2.31,5.08-5.9v-12.63h5.87V122.13z"/>
	<path d="M298.88,126.27v6.8h-5.83v-23.47h10.29c5.8,0,9.7,3.18,9.7,8.25c0,3.28-1.69,5.87-4.49,7.28l6.04,7.94h-7.04l-5.04-6.8
		H298.88z M303.2,121.02c2.24,0,4.04-1.24,4.04-3.17c0-1.9-1.8-3.11-4.04-3.11h-4.32v6.28H303.2z"/>
	<path d="M342.75,114.81v18.26h-5.83v-18.26h-7.49v-5.21h20.78v5.21H342.75z"/>
	<path d="M361.43,133.07h-5.83v-23.47h5.83V133.07z"/>
	<path d="M374.16,126.27v6.8h-5.83v-23.47h10.29c5.8,0,9.7,3.18,9.7,8.25c0,3.28-1.69,5.87-4.49,7.28l6.04,7.94h-7.04l-5.04-6.8
		H374.16z M378.48,121.02c2.24,0,4.04-1.24,4.04-3.17c0-1.9-1.8-3.11-4.04-3.11h-4.32v6.28H378.48z"/>
	<path d="M400.63,118.95h10.39v4.97h-10.39v4.07h11.91v5.07H394.8v-23.47h17.74v5.07h-11.91V118.95z"/>
	<path d="M437.74,116.88h-5.87c-0.31-1.76-1.42-2.97-3.8-2.97c-2,0-3.35,0.83-3.35,2.35c0,1.28,0.93,1.83,2.69,2.21l3.28,0.76
		c4.28,0.93,7.08,2.66,7.08,6.7c0,4.69-3.87,7.63-9.74,7.63c-5.28,0-10.05-2.49-10.6-8.29h5.83c0.38,2.07,2.17,3.31,4.94,3.31
		c2.17,0,3.31-0.79,3.31-2.07c0-0.79-0.48-1.62-2.49-2l-3.87-0.86c-4.63-1-6.8-3.18-6.8-6.91c0-4.69,3.8-7.66,9.32-7.66
		C431.49,109.08,437.15,110.56,437.74,116.88z"/>
	<path d="M443.09,130.65c0-1.69,1.42-3,3.14-3c1.73,0,3.14,1.31,3.14,3c0,1.73-1.42,3.04-3.14,3.04
		C444.5,133.69,443.09,132.38,443.09,130.65z"/>
	<path d="M476.57,125.99v7.08h-5.87v-7.08l-9.29-16.4h6.46l5.73,10.22l5.76-10.22h6.46L476.57,125.99z"/>
	<path d="M512.88,121.33c0,6.83-5.35,12.22-12.46,12.22c-7.08,0-12.43-5.39-12.43-12.22c0-6.83,5.35-12.22,12.43-12.22
		C507.53,109.11,512.88,114.5,512.88,121.33z M506.94,121.33c0-3.69-2.73-6.8-6.52-6.8c-3.8,0-6.52,3.11-6.52,6.8s2.73,6.8,6.52,6.8
		C504.22,128.13,506.94,125.02,506.94,121.33z"/>
	<path d="M540.46,122.13c0,7.28-4.21,11.46-10.94,11.46c-6.7,0-10.91-4.18-10.91-11.46v-12.53h5.87v12.63c0,3.59,1.97,5.9,5.04,5.9
		c3.07,0,5.08-2.31,5.08-5.9v-12.63h5.87V122.13z"/>
	<path d="M552.85,126.27v6.8h-5.83v-23.47h10.29c5.8,0,9.7,3.18,9.7,8.25c0,3.28-1.69,5.87-4.49,7.28l6.04,7.94h-7.04l-5.04-6.8
		H552.85z M557.16,121.02c2.24,0,4.04-1.24,4.04-3.17c0-1.9-1.8-3.11-4.04-3.11h-4.32v6.28H557.16z"/>
	<path d="M612.08,133.21h-5.63l-4.73-14.33l-4.73,14.33h-5.63l-7.6-23.61h6.18l4.38,14.6l4.97-14.53v-0.07h4.83l4.97,14.57
		l4.38-14.57h6.18L612.08,133.21z"/>
	<path d="M627.5,129.03l-1.55,4.04h-6.21l9.98-23.61h5.56l9.94,23.61h-6.18l-1.59-4.04H627.5z M632.48,116.26l-3.04,7.8h6.08
		L632.48,116.26z"/>
	<path d="M659.16,125.99v7.08h-5.87v-7.08l-9.29-16.4h6.46l5.73,10.22l5.77-10.22h6.46L659.16,125.99z"/>
	<path d="M669.2,130.65c0-1.69,1.42-3,3.14-3s3.14,1.31,3.14,3c0,1.73-1.42,3.04-3.14,3.04S669.2,132.38,669.2,130.65z"/>
</g>
<g>
	<path class="st1" d="M1195.11,21.96c0-1.18,0.27-2.28,0.82-3.3c0.55-1.01,1.31-1.81,2.28-2.4s2.02-0.87,3.14-0.87
		s2.17,0.29,3.14,0.87c0.97,0.58,1.73,1.38,2.28,2.4s0.82,2.11,0.82,3.3c0,1.2-0.28,2.3-0.83,3.32s-1.32,1.81-2.28,2.4
		c-0.96,0.58-2.01,0.87-3.12,0.87c-1.13,0-2.18-0.29-3.14-0.88s-1.72-1.39-2.27-2.4S1195.11,23.15,1195.11,21.96z M1206.5,21.96
		c0-0.97-0.22-1.88-0.66-2.71c-0.44-0.84-1.06-1.5-1.86-2.01c-0.8-0.5-1.68-0.75-2.64-0.75c-0.93,0-1.8,0.24-2.6,0.72
		c-0.8,0.48-1.43,1.14-1.88,1.99c-0.46,0.84-0.69,1.77-0.69,2.76s0.23,1.92,0.68,2.76c0.45,0.84,1.08,1.51,1.88,2
		c0.8,0.49,1.67,0.73,2.61,0.73s1.81-0.25,2.62-0.75c0.8-0.5,1.43-1.17,1.88-2.01C1206.28,23.85,1206.5,22.94,1206.5,21.96z
		 M1200.08,22.63v2.96h-1.33v-7.47h2.47c0.88,0,1.58,0.2,2.09,0.6s0.76,0.97,0.76,1.71c0,0.66-0.33,1.17-0.99,1.53
		c0.36,0.18,0.61,0.44,0.75,0.76c0.14,0.33,0.21,0.73,0.21,1.21s0.01,0.82,0.03,1.02c0.02,0.2,0.06,0.37,0.12,0.5v0.14h-1.36
		c-0.08-0.2-0.11-0.77-0.11-1.71c0-0.45-0.1-0.77-0.29-0.96s-0.52-0.29-0.97-0.29H1200.08z M1200.08,21.45h1.2
		c0.43,0,0.79-0.09,1.07-0.28c0.28-0.19,0.42-0.43,0.42-0.74c0-0.41-0.1-0.7-0.31-0.87c-0.21-0.17-0.58-0.26-1.13-0.27h-1.24V21.45z
		"/>
</g>
<g>
	<path d="M674.51,114.3c0-0.87,0.2-1.68,0.61-2.43c0.4-0.75,0.96-1.34,1.68-1.77c0.72-0.43,1.49-0.65,2.32-0.65s1.6,0.22,2.32,0.65
		c0.72,0.43,1.28,1.02,1.68,1.77c0.4,0.75,0.61,1.56,0.61,2.43c0,0.88-0.21,1.7-0.62,2.45s-0.97,1.34-1.68,1.77
		c-0.71,0.43-1.48,0.64-2.31,0.64c-0.83,0-1.61-0.22-2.32-0.65c-0.71-0.43-1.27-1.02-1.68-1.77
		C674.71,115.99,674.51,115.18,674.51,114.3z M682.92,114.3c0-0.72-0.16-1.39-0.49-2c-0.32-0.62-0.78-1.11-1.38-1.48
		c-0.59-0.37-1.24-0.56-1.95-0.56c-0.69,0-1.33,0.18-1.92,0.53c-0.59,0.36-1.05,0.84-1.39,1.47c-0.34,0.62-0.51,1.3-0.51,2.04
		s0.17,1.42,0.5,2.04c0.33,0.62,0.8,1.12,1.39,1.48c0.59,0.36,1.23,0.54,1.92,0.54c0.69,0,1.34-0.18,1.93-0.55
		c0.59-0.37,1.06-0.86,1.38-1.49C682.76,115.69,682.92,115.02,682.92,114.3z M678.18,114.79v2.19h-0.98v-5.51h1.82
		c0.65,0,1.17,0.15,1.54,0.44c0.38,0.3,0.56,0.72,0.56,1.26c0,0.48-0.24,0.86-0.73,1.13c0.26,0.13,0.45,0.32,0.56,0.56
		c0.11,0.24,0.16,0.54,0.16,0.89c0,0.35,0.01,0.61,0.02,0.75c0.01,0.15,0.04,0.27,0.09,0.37v0.1h-1.01
		c-0.06-0.15-0.08-0.57-0.08-1.26c0-0.33-0.07-0.57-0.21-0.71c-0.14-0.14-0.38-0.22-0.71-0.22H678.18z M678.18,113.93h0.88
		c0.32,0,0.58-0.07,0.79-0.21c0.2-0.14,0.31-0.32,0.31-0.54c0-0.3-0.08-0.52-0.23-0.65c-0.15-0.13-0.43-0.19-0.83-0.2h-0.91V113.93z
		"/>
</g>
</svg>
