<svg xmlns="http://www.w3.org/2000/svg" xmlns:xlink="http://www.w3.org/1999/xlink" width="18" height="16" viewBox="0 0 18 16"><defs><path id="a" d="M190.92 23.01L193 29v8a1 1 0 0 1-1 1h-1a1 1 0 0 1-1-1v-1h-12v1a1 1 0 0 1-1 1h-1a1 1 0 0 1-1-1v-8l2.08-5.99A1.5 1.5 0 0 1 178.5 22h11c.66 0 1.22.42 1.42 1.01zM178.5 33a1.5 1.5 0 1 0 0-3 1.5 1.5 0 0 0 0 3zm11 0a1.5 1.5 0 1 0 0-3 1.5 1.5 0 0 0 0 3zM177 28h14l-1.5-4.5h-11z"/></defs><g transform="translate(-175 -22)"><use fill="#7d8187" xlink:href="#a"/></g></svg>