<svg xmlns="http://www.w3.org/2000/svg" xmlns:xlink="http://www.w3.org/1999/xlink" width="36" height="24" viewBox="0 0 36 24"><defs><path id="uib8a" d="M850 707h28a4 4 0 0 1 4 4v16a4 4 0 0 1-4 4h-28a4 4 0 0 1-4-4v-16a4 4 0 0 1 4-4z"/><path id="uib8c" d="M849 711a1 1 0 1 1 2 0 1 1 0 0 1-2 0zm28 0a1 1 0 1 1 2 0 1 1 0 0 1-2 0zm0 16a1 1 0 1 1 2 0 1 1 0 0 1-2 0zm-28 0a1 1 0 1 1 2 0 1 1 0 0 1-2 0z"/><path id="uib8d" d="M852.55 722.1c-.5 0-.89-.16-1.15-.47a1.9 1.9 0 0 1-.4-1.27v-2.61c0-.54.13-.97.39-1.28.25-.31.64-.47 1.16-.47.5 0 .9.16 1.15.47.26.31.4.74.4 1.28v2.61c0 .53-.14.95-.4 1.27-.27.31-.65.47-1.15.47zm0-.88c.34 0 .51-.29.51-.87v-2.58a2.8 2.8 0 0 0-.03-.41.68.68 0 0 0-.14-.34.33.33 0 0 0-.15-.1.52.52 0 0 0-.2-.05.46.46 0 0 0-.23.06.43.43 0 0 0-.15.14.67.67 0 0 0-.08.2 1.57 1.57 0 0 0-.05.5v2.58c0 .58.17.87.52.87zm3.62.88c-.5 0-.89-.16-1.15-.47a1.9 1.9 0 0 1-.4-1.27v-2.61c0-.54.13-.97.39-1.28.25-.31.64-.47 1.16-.47.5 0 .9.16 1.15.47.26.31.4.74.4 1.28v2.61c0 .53-.14.95-.4 1.27-.27.31-.65.47-1.15.47zm0-.88c.34 0 .51-.29.51-.87v-2.58a2.8 2.8 0 0 0-.03-.41.68.68 0 0 0-.14-.34.33.33 0 0 0-.14-.1.52.52 0 0 0-.2-.05.46.46 0 0 0-.23.06.43.43 0 0 0-.16.14.67.67 0 0 0-.08.2 1.57 1.57 0 0 0-.05.5v2.58c0 .58.17.87.52.87zm3.62.88c-.5 0-.88-.16-1.15-.47a1.9 1.9 0 0 1-.4-1.27v-2.61c0-.54.13-.97.39-1.28.26-.31.64-.47 1.16-.47.51 0 .9.16 1.15.47.26.31.4.74.4 1.28v2.61c0 .53-.14.95-.4 1.27-.27.31-.65.47-1.15.47zm0-.88c.34 0 .51-.29.51-.87v-2.58a2.8 2.8 0 0 0-.03-.41.68.68 0 0 0-.14-.34.33.33 0 0 0-.14-.1.52.52 0 0 0-.2-.05.46.46 0 0 0-.23.06.43.43 0 0 0-.16.14.67.67 0 0 0-.08.2 1.57 1.57 0 0 0-.05.5v2.58c0 .58.17.87.52.87zm4.8.88c-.5 0-.88-.16-1.15-.47a1.9 1.9 0 0 1-.4-1.27v-2.61c0-.54.13-.97.39-1.28.26-.31.64-.47 1.16-.47.51 0 .9.16 1.16.47.26.31.39.74.39 1.28v2.61c0 .53-.14.95-.4 1.27-.27.31-.65.47-1.15.47zm0-.88c.34 0 .52-.29.52-.87v-2.58a2.8 2.8 0 0 0-.03-.41.68.68 0 0 0-.15-.34.33.33 0 0 0-.14-.1.52.52 0 0 0-.2-.05.46.46 0 0 0-.23.06.43.43 0 0 0-.15.14.67.67 0 0 0-.09.2 1.57 1.57 0 0 0-.05.5v2.58c0 .58.18.87.52.87zm3.62.88c-.5 0-.88-.16-1.15-.47a1.9 1.9 0 0 1-.4-1.27v-2.61c0-.54.13-.97.4-1.28.25-.31.64-.47 1.15-.47.51 0 .9.16 1.16.47.26.31.39.74.39 1.28v2.61c0 .53-.14.95-.4 1.27-.27.31-.65.47-1.15.47zm0-.88c.35 0 .52-.29.52-.87v-2.58a2.8 2.8 0 0 0-.03-.41.68.68 0 0 0-.15-.34.33.33 0 0 0-.14-.1.52.52 0 0 0-.2-.05.46.46 0 0 0-.23.06.43.43 0 0 0-.15.14.67.67 0 0 0-.09.2 1.57 1.57 0 0 0-.04.5v2.58c0 .58.17.87.51.87zm3.62.88c-.5 0-.88-.16-1.14-.47a1.9 1.9 0 0 1-.4-1.27v-2.61c0-.54.13-.97.38-1.28.26-.31.65-.47 1.16-.47.51 0 .9.16 1.16.47.26.31.39.74.39 1.28v2.61c0 .53-.13.95-.4 1.27-.26.31-.65.47-1.15.47zm0-.88c.35 0 .52-.29.52-.87v-2.58a2.8 2.8 0 0 0-.03-.41.68.68 0 0 0-.15-.34.33.33 0 0 0-.14-.1.52.52 0 0 0-.2-.05.46.46 0 0 0-.23.06.43.43 0 0 0-.15.14.67.67 0 0 0-.08.2 1.57 1.57 0 0 0-.05.5v2.58c0 .58.17.87.51.87zm3.62.88c-.5 0-.88-.16-1.14-.47a1.9 1.9 0 0 1-.4-1.27v-2.61c0-.54.13-.97.38-1.28.26-.31.65-.47 1.16-.47.52 0 .9.16 1.16.47.26.31.39.74.39 1.28v2.61c0 .53-.13.95-.4 1.27-.26.31-.65.47-1.15.47zm0-.88c.35 0 .52-.29.52-.87v-2.58a2.8 2.8 0 0 0-.03-.41.68.68 0 0 0-.14-.34.33.33 0 0 0-.15-.1.52.52 0 0 0-.2-.05.46.46 0 0 0-.23.06.43.43 0 0 0-.15.14.67.67 0 0 0-.08.2 1.57 1.57 0 0 0-.05.5v2.58c0 .58.17.87.51.87z"/><clipPath id="uib8b"><use fill="#fff" xlink:href="#uib8a"/></clipPath></defs><g><g transform="translate(-846 -707)"><use fill="#fff" fill-opacity="1" stroke="#23262b" stroke-miterlimit="50" stroke-width="2" clip-path="url(&quot;#uib8b&quot;)" xlink:href="#uib8a"/></g><g transform="translate(-846 -707)"><use xlink:href="#uib8c"/></g><g transform="translate(-846 -707)"><use xlink:href="#uib8d"/></g></g></svg>
