<?xml version="1.0" encoding="UTF-8" standalone="no"?>
<svg
   xmlns:dc="http://purl.org/dc/elements/1.1/"
   xmlns:cc="http://creativecommons.org/ns#"
   xmlns:rdf="http://www.w3.org/1999/02/22-rdf-syntax-ns#"
   xmlns:svg="http://www.w3.org/2000/svg"
   xmlns="http://www.w3.org/2000/svg"
   xmlns:xlink="http://www.w3.org/1999/xlink"
   xmlns:sodipodi="http://sodipodi.sourceforge.net/DTD/sodipodi-0.dtd"
   xmlns:inkscape="http://www.inkscape.org/namespaces/inkscape"
   width="36"
   height="24"
   viewBox="0 0 36 24"
   version="1.1"
   id="svg19"
   sodipodi:docname="Plate-number.svg"
   inkscape:version="0.92.2 (5c3e80d, 2017-08-06)">
  <metadata
     id="metadata23">
    <rdf:RDF>
      <cc:Work
         rdf:about="">
        <dc:format>image/svg+xml</dc:format>
        <dc:type
           rdf:resource="http://purl.org/dc/dcmitype/StillImage" />
        <dc:title></dc:title>
      </cc:Work>
    </rdf:RDF>
  </metadata>
  <sodipodi:namedview
     pagecolor="#ffffff"
     bordercolor="#666666"
     borderopacity="1"
     objecttolerance="10"
     gridtolerance="10"
     guidetolerance="10"
     inkscape:pageopacity="0"
     inkscape:pageshadow="2"
     inkscape:window-width="640"
     inkscape:window-height="480"
     id="namedview21"
     showgrid="false"
     fit-margin-top="0"
     fit-margin-left="0"
     fit-margin-right="0"
     fit-margin-bottom="0"
     inkscape:zoom="7.8888889"
     inkscape:cx="18"
     inkscape:cy="12"
     inkscape:window-x="0"
     inkscape:window-y="0"
     inkscape:window-maximized="0"
     inkscape:current-layer="svg19" />
  <defs
     id="defs5">
    <path
       id="a"
       d="m 850,679 h 28 a 4,4 0 0 1 4,4 v 16 a 4,4 0 0 1 -4,4 h -28 a 4,4 0 0 1 -4,-4 v -16 a 4,4 0 0 1 4,-4 z"
       inkscape:connector-curvature="0" />
    <path
       id="b"
       d="m 849,683 a 1,1 0 1 1 2,0 1,1 0 0 1 -2,0 z m 28,0 a 1,1 0 1 1 2,0 1,1 0 0 1 -2,0 z m 0,16 a 1,1 0 1 1 2,0 1,1 0 0 1 -2,0 z m -28,0 a 1,1 0 1 1 2,0 1,1 0 0 1 -2,0 z"
       inkscape:connector-curvature="0" />
    <path
       id="c"
       d="m 852.55,694.1 c -0.5,0 -0.89,-0.16 -1.15,-0.47 a 1.9,1.9 0 0 1 -0.4,-1.27 v -2.61 c 0,-0.54 0.13,-0.97 0.39,-1.28 0.25,-0.31 0.64,-0.47 1.16,-0.47 0.51,0 0.89,0.16 1.15,0.47 0.26,0.31 0.39,0.74 0.39,1.28 v 2.61 c 0,0.53 -0.13,0.95 -0.4,1.27 -0.26,0.31 -0.64,0.47 -1.14,0.47 z m 0,-0.88 c 0.34,0 0.51,-0.29 0.51,-0.87 v -2.58 l -0.01,-0.21 -0.02,-0.2 a 0.74,0.74 0 0 0 -0.05,-0.19 0.99,0.99 0 0 0 -0.09,-0.15 0.33,0.33 0 0 0 -0.15,-0.11 0.53,0.53 0 0 0 -0.19,-0.04 0.48,0.48 0 0 0 -0.24,0.06 0.5,0.5 0 0 0 -0.15,0.14 0.7,0.7 0 0 0 -0.08,0.21 c -0.02,0.08 -0.04,0.16 -0.04,0.24 l -0.01,0.25 v 2.58 c 0,0.58 0.17,0.87 0.52,0.87 z m 3.62,0.88 c -0.5,0 -0.89,-0.16 -1.15,-0.47 a 1.9,1.9 0 0 1 -0.4,-1.27 v -2.61 c 0,-0.54 0.13,-0.97 0.39,-1.28 0.25,-0.31 0.64,-0.47 1.16,-0.47 0.51,0 0.89,0.16 1.15,0.47 0.26,0.31 0.39,0.74 0.39,1.28 v 2.61 c 0,0.53 -0.13,0.95 -0.4,1.27 -0.26,0.31 -0.64,0.47 -1.14,0.47 z m 0,-0.88 c 0.34,0 0.51,-0.29 0.51,-0.87 v -2.79 l -0.03,-0.2 a 0.74,0.74 0 0 0 -0.05,-0.19 0.99,0.99 0 0 0 -0.09,-0.15 0.36,0.36 0 0 0 -0.14,-0.11 0.65,0.65 0 0 0 -0.2,-0.04 0.41,0.41 0 0 0 -0.23,0.06 0.44,0.44 0 0 0 -0.16,0.14 0.7,0.7 0 0 0 -0.08,0.21 l -0.04,0.24 -0.01,0.25 v 2.58 c 0,0.58 0.17,0.87 0.52,0.87 z m 3.62,0.88 c -0.5,0 -0.88,-0.16 -1.15,-0.47 -0.26,-0.32 -0.4,-0.74 -0.4,-1.27 v -2.61 c 0,-0.54 0.13,-0.97 0.39,-1.28 0.26,-0.31 0.64,-0.47 1.16,-0.47 0.51,0 0.9,0.16 1.15,0.47 0.26,0.31 0.39,0.74 0.39,1.28 v 2.61 c 0,0.53 -0.13,0.95 -0.39,1.27 -0.27,0.31 -0.65,0.47 -1.15,0.47 z m 0,-0.88 c 0.34,0 0.51,-0.29 0.51,-0.87 v -2.79 l -0.03,-0.2 a 0.48,0.48 0 0 0 -0.05,-0.19 c -0.02,-0.06 -0.06,-0.11 -0.09,-0.15 a 0.3,0.3 0 0 0 -0.14,-0.11 0.65,0.65 0 0 0 -0.2,-0.04 0.41,0.41 0 0 0 -0.23,0.06 0.44,0.44 0 0 0 -0.16,0.14 0.7,0.7 0 0 0 -0.08,0.21 l -0.04,0.24 -0.01,0.25 v 2.58 c 0,0.58 0.17,0.87 0.52,0.87 z m 4.8,0.88 c -0.5,0 -0.88,-0.16 -1.15,-0.47 -0.26,-0.32 -0.4,-0.74 -0.4,-1.27 v -2.61 c 0,-0.54 0.13,-0.97 0.39,-1.28 0.26,-0.31 0.64,-0.47 1.16,-0.47 0.51,0 0.9,0.16 1.16,0.47 0.26,0.31 0.39,0.74 0.39,1.28 v 2.61 c 0,0.53 -0.14,0.95 -0.4,1.27 -0.27,0.31 -0.65,0.47 -1.15,0.47 z m 0,-0.88 c 0.34,0 0.52,-0.29 0.52,-0.87 v -2.58 l -0.01,-0.21 -0.02,-0.2 a 0.47,0.47 0 0 0 -0.06,-0.19 0.38,0.38 0 0 0 -0.09,-0.15 0.26,0.26 0 0 0 -0.14,-0.11 0.65,0.65 0 0 0 -0.2,-0.04 0.41,0.41 0 0 0 -0.23,0.06 0.34,0.34 0 0 0 -0.15,0.14 0.51,0.51 0 0 0 -0.09,0.21 l -0.04,0.24 -0.01,0.25 v 2.58 c 0,0.58 0.18,0.87 0.52,0.87 z m 3.62,0.88 c -0.5,0 -0.88,-0.16 -1.15,-0.47 a 1.95,1.95 0 0 1 -0.39,-1.27 v -2.61 c 0,-0.54 0.12,-0.97 0.38,-1.28 0.26,-0.31 0.65,-0.47 1.16,-0.47 0.51,0 0.9,0.16 1.16,0.47 0.26,0.31 0.39,0.74 0.39,1.28 v 2.61 c 0,0.53 -0.14,0.95 -0.4,1.27 -0.27,0.31 -0.65,0.47 -1.15,0.47 z m 0,-0.88 c 0.35,0 0.52,-0.29 0.52,-0.87 v -2.58 l -0.01,-0.21 -0.02,-0.2 a 0.47,0.47 0 0 0 -0.06,-0.19 0.38,0.38 0 0 0 -0.09,-0.15 0.26,0.26 0 0 0 -0.14,-0.11 c -0.06,-0.02 -0.12,-0.04 -0.2,-0.04 a 0.44,0.44 0 0 0 -0.23,0.06 0.34,0.34 0 0 0 -0.15,0.14 0.51,0.51 0 0 0 -0.09,0.21 l -0.04,0.24 v 2.83 c 0,0.58 0.17,0.87 0.51,0.87 z m 3.62,0.88 c -0.5,0 -0.88,-0.16 -1.14,-0.47 a 1.9,1.9 0 0 1 -0.4,-1.27 v -2.61 a 2,2 0 0 1 0.38,-1.28 c 0.26,-0.31 0.65,-0.47 1.16,-0.47 0.51,0 0.9,0.16 1.16,0.47 0.26,0.31 0.39,0.74 0.39,1.28 v 2.61 c 0,0.53 -0.13,0.95 -0.4,1.27 -0.26,0.31 -0.65,0.47 -1.15,0.47 z m 0,-0.88 c 0.35,0 0.52,-0.29 0.52,-0.87 v -2.58 l -0.01,-0.21 -0.02,-0.2 a 0.56,0.56 0 0 0 -0.15,-0.34 0.26,0.26 0 0 0 -0.14,-0.11 c -0.06,-0.02 -0.12,-0.04 -0.2,-0.04 a 0.44,0.44 0 0 0 -0.23,0.06 0.5,0.5 0 0 0 -0.15,0.14 0.51,0.51 0 0 0 -0.08,0.21 0.67,0.67 0 0 0 -0.04,0.24 l -0.01,0.25 v 2.58 c 0,0.58 0.17,0.87 0.51,0.87 z m 3.62,0.88 c -0.5,0 -0.88,-0.16 -1.14,-0.47 a 1.9,1.9 0 0 1 -0.4,-1.27 v -2.61 a 2,2 0 0 1 0.38,-1.28 c 0.26,-0.31 0.65,-0.47 1.16,-0.47 0.52,0 0.9,0.16 1.16,0.47 0.26,0.31 0.39,0.74 0.39,1.28 v 2.61 c 0,0.53 -0.13,0.95 -0.4,1.27 -0.26,0.31 -0.65,0.47 -1.15,0.47 z m 0,-0.88 c 0.35,0 0.52,-0.29 0.52,-0.87 v -2.58 l -0.01,-0.21 -0.02,-0.2 a 0.74,0.74 0 0 0 -0.05,-0.19 0.99,0.99 0 0 0 -0.09,-0.15 0.33,0.33 0 0 0 -0.15,-0.11 c -0.06,-0.02 -0.12,-0.04 -0.2,-0.04 a 0.46,0.46 0 0 0 -0.23,0.06 0.5,0.5 0 0 0 -0.15,0.14 0.51,0.51 0 0 0 -0.08,0.21 c -0.02,0.08 -0.04,0.16 -0.04,0.24 l -0.01,0.25 v 2.58 c 0,0.58 0.17,0.87 0.51,0.87 z"
       inkscape:connector-curvature="0" />
  </defs>
  <g
     transform="translate(-846,-679)"
     id="g9">
    <use
       xlink:href="#a"
       id="use7"
       style="fill:#ffffff"
       x="0"
       y="0"
       width="100%"
       height="100%" />
  </g>
  <g
     transform="translate(-846,-679)"
     id="g13">
    <use
       xlink:href="#b"
       id="use11"
       x="0"
       y="0"
       width="100%"
       height="100%" />
  </g>
  <g
     transform="translate(-846,-679)"
     id="g17">
    <use
       xlink:href="#c"
       id="use15"
       x="0"
       y="0"
       width="100%"
       height="100%" />
  </g>
</svg>
