<?xml version="1.0" encoding="utf-8"?>
<!-- Generator: Adobe Illustrator 23.0.1, SVG Export Plug-In . SVG Version: 6.00 Build 0)  -->
<svg version="1.1" id="Layer_1" xmlns="http://www.w3.org/2000/svg" xmlns:xlink="http://www.w3.org/1999/xlink" x="0px" y="0px"
	 viewBox="0 0 950 104.35" style="enable-background:new 0 0 950 104.35;" xml:space="preserve">
<style type="text/css">
	.st0{fill:#ED1C24;}
	.st1{fill:#002B57;}
	.st2{fill:#A7A9AC;}
</style>
<polygon class="st0" points="17.88,77.56 10.31,92.71 46.29,92.71 44.4,77.56 "/>
<polygon class="st0" points="51.98,77.56 53.87,92.71 84.17,92.71 82.29,77.56 "/>
<polygon class="st0" points="89.87,77.56 91.75,92.71 122.06,92.71 120.17,77.56 "/>
<polygon class="st0" points="127.75,77.56 129.64,92.71 154.27,92.71 161.85,77.56 "/>
<polygon class="st0" points="59.56,54.83 51.98,69.98 21.67,69.98 29.25,54.83 "/>
<polygon class="st0" points="97.44,54.83 89.87,69.98 59.56,69.98 67.14,54.83 "/>
<polygon class="st0" points="135.33,54.83 127.75,69.98 97.44,69.98 105.02,54.83 "/>
<polygon class="st0" points="173.21,54.83 165.64,69.98 135.33,69.98 142.91,54.83 "/>
<polygon class="st1" points="67.13,32.1 69.02,47.25 33.04,47.25 40.61,32.1 "/>
<polygon class="st1" points="106.91,47.25 76.6,47.25 74.71,32.1 105.02,32.1 "/>
<polygon class="st0" points="144.79,47.25 114.48,47.25 112.6,32.1 142.9,32.1 "/>
<polygon class="st0" points="184.58,32.1 177,47.25 152.37,47.25 150.48,32.1 "/>
<polygon class="st1" points="51.98,9.36 44.4,24.52 74.71,24.52 82.29,9.36 "/>
<polygon class="st1" points="89.87,9.36 82.29,24.52 112.6,24.52 120.17,9.36 "/>
<polygon class="st0" points="127.75,9.36 120.17,24.52 150.48,24.52 158.06,9.36 "/>
<polygon class="st0" points="165.63,9.36 158.06,24.52 188.37,24.52 195.94,9.36 "/>
<path class="st1" d="M267.19,91.4c-8.06,2.56-12.67,3.07-18.81,3.07c-14.97,0-24.96-11.01-24.96-27.77V48.27h-12.16V30.48h12.16
	V9.36h20.74v21.12h21.12v17.79h-21.12v17.79c0,6.27,3.58,9.34,9.72,9.34c2.94,0,6.4-0.64,11.01-1.54L267.19,91.4z"/>
<path class="st1" d="M350.25,49.16c-10.11,0.38-16.51,3.07-21.38,7.93v35.45h-20.73V30.48h20.73v6.66
	c5.51-4.74,12.16-7.68,21.38-7.68V49.16z"/>
<path class="st1" d="M373.29,55.44h25.34c-1.15-6.78-5.63-10.37-12.29-10.37C379.3,45.07,374.82,49.16,373.29,55.44 M417.7,67.21
	l0.13,0.38h-44.28c1.67,5.63,6.02,9.98,13.95,9.98c4.35,0,7.68-1.66,9.47-4.48h20.48c-2.94,12.8-14.85,20.86-30.21,20.86
	c-20.35,0-33.91-13.57-33.91-32.51c0-18.82,13.18-32.38,33.02-32.38c18.05,0,31.74,12.41,31.74,31.1
	C418.08,62.48,418.08,64.91,417.7,67.21"/>
<rect x="275.5" y="30.48" class="st1" width="20.73" height="62.07"/>
<path class="st2" d="M471.96,71.05v-19.2c-3.84-4.48-8.32-5.89-12.92-5.89c-8.45,0-14.59,6.91-14.59,15.49
	c0,8.57,6.14,15.36,14.59,15.36C463.65,76.81,468.12,75.53,471.96,71.05 M492.7,92.55h-20.74V89.1c-4.6,2.94-10.24,4.74-17.02,4.74
	c-16.77,0-30.85-13.95-30.85-32.38c0-18.56,14.08-32.38,30.85-32.38c6.78,0,12.41,1.79,17.02,4.74v-3.33h20.74V92.55z"/>
<path class="st2" d="M607.38,57.1v35.45h-20.86V60.43c0-8.83-4.22-13.06-11.14-13.06c-3.2,0-6.4,1.41-9.47,5.12
	c0.13,1.54,0.25,3.07,0.25,4.61v35.45h-20.73V60.43c0-8.83-4.35-13.06-11.14-13.06c-3.2,0-6.27,1.54-9.34,5.5v39.68h-20.73V30.48
	h20.73v3.71c4.23-3.58,8.58-5.63,15.49-5.63c7.81,0,14.46,2.94,19.07,8.32c6.53-5.76,12.8-8.32,22.01-8.32
	C596.37,28.56,607.38,39.44,607.38,57.1"/>
<path class="st2" d="M634.89,55.44h25.34c-1.15-6.78-5.63-10.37-12.29-10.37C640.91,45.07,636.43,49.16,634.89,55.44 M679.3,67.21
	l0.13,0.38h-44.28c1.66,5.63,6.01,9.98,13.95,9.98c4.35,0,7.68-1.66,9.47-4.48h20.48c-2.94,12.8-14.85,20.86-30.21,20.86
	c-20.35,0-33.91-13.57-33.91-32.51c0-18.82,13.18-32.38,33.02-32.38c18.05,0,31.74,12.41,31.74,31.1
	C679.69,62.48,679.69,64.91,679.3,67.21"/>
<path class="st2" d="M729.48,49.16c-10.11,0.38-16.51,3.07-21.37,7.93v35.45h-20.73V30.48h20.73v6.66
	c5.5-4.74,12.16-7.68,21.37-7.68V49.16z"/>
<path class="st2" d="M813.31,67.08h19.58c-1.41,16-14.59,26.88-31.74,26.88c-19.58,0-33.91-13.57-33.91-32.51
	c0-18.81,14.33-32.38,33.91-32.38c17.15,0,30.33,10.88,31.74,26.88h-19.58c-1.02-5.63-5.76-9.35-12.16-9.35
	c-8.83,0-14.21,6.4-14.21,14.85c0,8.45,5.37,14.97,14.21,14.97C807.55,76.43,812.29,72.71,813.31,67.08"/>
<path class="st2" d="M886.77,71.05v-19.2c-3.84-4.48-8.32-5.89-12.92-5.89c-8.45,0-14.59,6.91-14.59,15.49
	c0,8.57,6.14,15.36,14.59,15.36C878.46,76.81,882.93,75.53,886.77,71.05 M907.51,92.55h-20.74V89.1c-4.6,2.94-10.24,4.74-17.02,4.74
	c-16.77,0-30.85-13.95-30.85-32.38c0-18.56,14.08-32.38,30.85-32.38c6.78,0,12.41,1.79,17.02,4.74v-3.33h20.74V92.55z"/>
<rect x="737.8" y="30.48" class="st2" width="20.73" height="62.07"/>
<path class="st1" d="M913.52,17.24v2.04h3.72v11.16h2.65V19.29h3.74v-2.04H913.52z M936.01,17.24l-3.39,9.73h-0.05l-3.37-9.73h-3.45
	v13.2h2.65v-3.93l-0.26-5.8l0.06-0.01l3.52,9.74h1.78l3.54-9.78l0.05,0.01l-0.25,5.83v3.93h2.65v-13.2H936.01z"/>
</svg>
