<?xml version="1.0" encoding="UTF-8" standalone="no"?>
<svg width="28px" height="23px" viewBox="0 0 28 23" version="1.1" xmlns="http://www.w3.org/2000/svg" xmlns:xlink="http://www.w3.org/1999/xlink">
    <!-- Generator: Sketch 45.2 (43514) - http://www.bohemiancoding.com/sketch -->
    <title>Twitter</title>
    <desc>Created with Sketch.</desc>
    <defs></defs>
    <g id="Page-1" stroke="none" stroke-width="1" fill="none" fill-rule="evenodd">
        <g id="Desktop-HD" transform="translate(-1159.000000, -4630.000000)" fill="#FFFFFF">
            <g id="Footer" transform="translate(0.000000, 4528.000000)">
                <g id="Social" transform="translate(1102.000000, 99.000000)">
                    <g id="Icon-/-Twitter" transform="translate(57.000000, 3.000000)">
                        <path d="M8.80566433,22.8260535 C19.3721045,22.8260535 25.150531,14.045142 25.150531,6.43064548 C25.150531,6.18126488 25.1455512,5.932921 25.1344642,5.68580236 C26.2560427,4.87244083 27.2309525,3.85738826 28,2.70190595 C26.9706884,3.16080019 25.8630157,3.46974562 24.7009413,3.60913863 C25.8869751,2.89568014 26.7975235,1.76724705 27.2271002,0.421854717 C26.1172665,1.08196875 24.8881059,1.56159759 23.5792688,1.8205915 C22.5310716,0.700546494 21.0385463,0 19.3860103,0 C16.2136072,0 13.6410329,2.58060858 13.6410329,5.76157787 C13.6410329,6.21378049 13.6914884,6.6536366 13.7899565,7.07549132 C9.01547289,6.8344988 4.78181239,4.54153557 1.94850422,1.05491954 C1.45512995,1.90654581 1.17062465,2.89568014 1.17062465,3.95116517 C1.17062465,5.95035691 2.18480898,7.71524776 3.72703814,8.74773623 C2.78454388,8.71851931 1.89917619,8.45905415 1.12533682,8.02711488 C1.1244912,8.05124241 1.1244912,8.07480445 1.1244912,8.10062844 C1.1244912,10.8913161 3.10465932,13.2213189 5.73323266,13.749297 C5.25056962,13.8813387 4.74263184,13.952119 4.21843929,13.952119 C3.84890186,13.952119 3.48876026,13.915645 3.13876613,13.8481633 C3.87013641,16.1377336 5.99086593,17.8038524 8.50518615,17.850411 C6.5390178,19.3962691 4.06218688,20.3169793 1.37028573,20.3169793 C0.907165987,20.3169793 0.44968373,20.2905898 0,20.2372454 C2.54241372,21.8718853 5.56128924,22.8256766 8.80594621,22.8256766" id="Twitter"></path>
                    </g>
                </g>
            </g>
        </g>
    </g>
</svg>