<?xml version="1.0" encoding="utf-8"?>
<!-- Generator: Adobe Illustrator 21.1.0, SVG Export Plug-In . SVG Version: 6.00 Build 0)  -->
<svg version="1.1" id="Layer_1" xmlns="http://www.w3.org/2000/svg" xmlns:xlink="http://www.w3.org/1999/xlink" x="0px" y="0px"
	 viewBox="0 0 28 28" style="enable-background:new 0 0 28 28;" xml:space="preserve" width="28px" height="28px">
<style type="text/css">
	.st0{fill:#FFFFFF;}
</style>
<path class="st0" d="M27.3,7.3C27,6.1,26,5.1,24.8,4.8C22.7,4.2,14,4.2,14,4.2s-8.7,0-10.8,0.6C2,5.1,1,6.1,0.7,7.3
	C0.1,9.5,0.1,14,0.1,14s0,4.5,0.6,6.7C1,21.9,2,22.9,3.2,23.2C5.3,23.8,14,23.8,14,23.8s8.7,0,10.8-0.6c1.2-0.3,2.1-1.3,2.5-2.5
	c0.6-2.2,0.6-6.7,0.6-6.7S27.9,9.5,27.3,7.3z M11.2,18.1V9.9l7.3,4.1L11.2,18.1z"/>
</svg>
